# xmcd
#
# Track frame offsets: 
#        150
#        33774
#        59199
#        105657
#        143596
#
# Disc length: 2386 seconds
#
# Revision: 0
# Processed by: cddbd v1.5.2PL0 Copyright (c) Steve Scherf et al.
# Submitted via: ExactAudioCopyFreeDBPlugin 1.0
#
DISCID=3f095005
DTITLE=Devin Townsend Project - Ocean Machine: Live at the Ancient Rom
DTITLE=an Theatre Plovdiv - CD II
DYEAR=2018
DGENRE=
TTITLE0=Canada
TTITLE1=Bad Devil
TTITLE2=Higher
TTITLE3=A Simple Lullaby
TTITLE4=Deep Peace
EXTD=
EXTT0=
EXTT1=
EXTT2=
EXTT3=
EXTT4=
PLAYORDER=
